<svg xmlns="http://www.w3.org/2000/svg" version="1.1" xmlns:xlink="http://www.w3.org/1999/xlink" xmlns:svgjs="http://svgjs.dev/svgjs" width="2000" height="2250" viewBox="0 0 2000 2250"><g transform="matrix(1,0,0,1,3.410605131648481e-13,0)"><svg viewBox="0 0 320 360" data-background-color="#ffffff" preserveAspectRatio="xMidYMid meet" height="2250" width="2000" xmlns="http://www.w3.org/2000/svg" xmlns:xlink="http://www.w3.org/1999/xlink"><g id="tight-bounds" transform="matrix(1,0,0,1,0,0)"><svg viewBox="0 0 320 360" height="360" width="320"><g><svg></svg></g><g><svg viewBox="0 0 320 360" height="360" width="320"><g><path xmlns="http://www.w3.org/2000/svg" d="M20.961 227.22l3.726 4.658-1.863-6.056c-0.466-2.795-3.726 0.466-1.863 1.398M25.153 224.425c1.397 2.329 2.795 4.658 2.795 6.987 0 3.261 2.795 4.658 5.123 5.589-3.261-3.726-5.124-13.974-7.918-12.576M204.017 26.929c7.918 0 15.371-0.932 23.756 0.931 20.495 5.124 37.729 15.371 49.374 29.811l32.606 52.169c1.397 13.042 4.192 27.482 3.726 43.319 3.261 0 2.795-4.658 6.521-5.59-3.726 9.316-5.59 20.961-6.521 34.469-2.329-7.453 0-18.632 0.466-24.687-3.261 5.124-5.124 1.397-5.124-0.932 0.466-3.726-1.397-3.261-2.795-4.658-5.124-4.658-8.384-9.782-12.11-17.7 2.329-6.055 2.795-14.905-4.658-19.563-2.329-1.397-5.124-3.726-6.521-7.453-1.863-5.124-5.124-11.179-4.193-19.097 0.466-2.329-6.987 5.124-11.179 1.863-18.166-12.576-36.332-27.016-58.224-39.127-11.645 0-20.029-4.192-24.221-9.316-3.726-4.658-0.932-10.713 4.658-11.179 3.261 0 6.987-0.932 9.782 0.932 0.466-1.863 2.329-4.192 4.657-4.192M157.904 16.215l0.932 0.466c4.658 0.932 6.987 7.453 12.11 5.124 0 3.261 0.466 6.521-0.466 8.85-1.397 3.726-5.59 3.726-8.85 3.726-31.208-1.863-49.374 11.179-68.471 22.358-5.124 3.261-10.713 5.59-14.906 9.782-20.029 18.632-41.921 35.866-47.045 70.335l-4.192 38.195c-0.466 4.192-5.124 8.384-4.192 13.508l3.26 22.824c-3.261-3.261-5.124 0.932-4.192 2.795 0.466 1.397 2.329 6.055 5.124 1.863 3.726 6.987 7.453 20.495 12.576 26.55 15.837 18.632 36.332 35.4 53.101 52.169 4.192-0.932 7.453-0.932 8.384-3.727 1.397 2.795-1.397 5.59-3.726 6.056 7.453 4.658 15.837 8.85 27.016 9.781 14.44 0.932 27.948 3.261 40.524 6.522 6.521-1.863 13.042-2.795 20.029-3.261 2.329 0 3.726-3.726 6.521-4.658l0.466-4.658c2.795 4.192 2.329-1.397 0.466-4.192 3.261 2.795 4.192 5.124 5.589 6.987 0-1.397 3.726-6.521 3.727-0.466l0.931-6.055c1.397-0.932 1.863 5.124 3.261 0.931 1.397-4.192 4.192-0.932 6.987-2.329-0.932 1.863-0.466 5.59 2.794 3.261l3.727-3.261c2.329 5.59 6.055 3.261 7.918 2.329 20.495-13.042 40.99-28.413 60.553-43.784l-0.466 6.055 2.329-7.453c2.329 2.329 4.192 0.466 5.124-0.931 2.795-4.658 6.521-9.316 12.577-13.508-7.453 20.029-16.303 35.866-27.482 48.908l-4.658 5.59c0 3.261-0.932 7.453-4.658 7.918-1.863 0.466-5.59-0.932-8.384 1.863-1.397 1.863 3.261 5.59-0.466 2.795-3.261-2.329-6.521 0-10.248 0.932-2.795 0.932 1.863 3.726 2.795 5.589 0.932 1.863 1.863 3.726 1.398 6.056l-5.124-5.59c-6.055 3.261-9.782 9.316-14.906 13.974-2.329 1.863-1.397 5.124-1.397 7.918-3.261 0-6.987-0.932-8.85 0.932-1.397 1.863-0.932 4.658-0.932 7.453-4.658-0.466-5.124-7.453-9.315-6.056-4.192 0.932-8.85 1.397-12.577 3.727 2.795 5.59-4.658 2.329-3.726 3.26-6.987-4.192-13.042-7.453-20.495-4.658-15.837-5.124-35.4-2.795-49.84-0.931 0-2.329 0.466-4.658-0.466-5.124-0.932 2.329-3.726 1.397-3.26 1.397-8.85-6.055-17.7-9.782-27.016-14.905-8.384 0.932-16.303-3.261-18.632-5.59-6.521-6.055-13.974-2.795-20.029-4.192-13.042-3.261-17.7-16.769-19.098-26.084-0.932-4.658-4.658-6.521-6.055-6.056-6.055-19.563-15.371-37.263-22.824-55.429-1.863-4.658-1.397-9.316-1.397-14.44 2.329 0.932 4.658 0.466 4.192-2.794-2.329-15.371-7.918-27.016-13.974-38.195 3.261-15.837 3.726-34.469 11.179-48.443 6.521-12.576 18.632-19.098 27.016-29.811 2.795-3.726 2.795-8.85 5.59-12.11 9.316-9.316 18.632-19.098 28.879-27.482 4.658-3.726 10.247 0 17.234-1.397 2.329-8.384 11.645-15.837 20.495-13.508 3.726 0.932 11.179-8.85 13.508-9.782 3.726-1.397 1.863 3.726 1.863 6.987 8.85-6.987 20.961-10.713 32.14-14.906" fill="#ba3b0a" fill-rule="nonzero" stroke="none" stroke-width="1" stroke-linecap="butt" stroke-linejoin="miter" stroke-miterlimit="10" stroke-dasharray="" stroke-dashoffset="0" font-family="none" font-weight="none" font-size="none" text-anchor="none" style="mix-blend-mode: normal" data-fill-palette-color="tertiary"></path></g><g transform="matrix(1,0,0,1,64,134.5263157894737)"><svg viewBox="0 0 192 90.94736842105263" height="90.94736842105263" width="192"><g><svg viewBox="0 0 192 90.94736842105263" height="90.94736842105263" width="192"><g><svg viewBox="0 0 192 90.94736842105263" height="90.94736842105263" width="192"><g><svg viewBox="0 0 192 90.94736842105263" height="90.94736842105263" width="192"><g id="textblocktransform"><svg viewBox="0 0 192 90.94736842105263" height="90.94736842105263" width="192" id="textblock"><g><svg viewBox="0 0 192 90.94736842105263" height="90.94736842105263" width="192"><g transform="matrix(1,0,0,1,0,0)"><svg width="192" viewBox="0.20000000298023224 -32.599998474121094 85.5 40.5" height="90.94736842105263" data-palette-color="#ba3b0a"><path d="M1.85 7.9L0.2 5.7 0.3 5.1Q2.15 3.6 3.1 2.2 4.05 0.8 4.42-1.15 4.8-3.1 4.8-6.35L4.8-6.35 4.8-25.9Q4.8-27.45 4.48-27.95 4.15-28.45 3.1-28.45L3.1-28.45Q2.5-28.45 1.93-28.4 1.35-28.35 1.15-28.35L1.15-28.35 0.8-28.9 1.2-32.2 7.75-32.25Q10.25-32.25 12.8-32.4 15.35-32.55 16.1-32.6L16.1-32.6 15.75-28.7Q14.2-28.35 13.78-27.9 13.35-27.45 13.25-26L13.25-26Q13.05-22.25 12.85-15.6 12.65-8.95 12.65-4.7L12.65-4.7Q12.65 0.2 10.08 3.2 7.5 6.2 1.85 7.9L1.85 7.9ZM34.6 0.7Q30.9-11.85 27.8-20.75L27.8-20.75 27.25-20.75Q27.15-17.75 26.8-11.3L26.8-11.3 26.5-5.3Q26.5-3.65 28.15-3.65L28.15-3.65Q29.15-3.65 29.65-3.75L29.65-3.75 30-3.4 29.45 0.2 27.6 0.15Q25.15 0 23.05 0L23.05 0Q22 0 20.17 0.15 18.35 0.3 17.75 0.4L17.75 0.4 18.1-3.35Q19.45-3.55 20.07-4.28 20.7-5 21.05-6.85L21.05-6.85Q21.45-10.3 22.2-17.9 22.95-25.5 22.95-26.2L22.95-26.2Q22.95-27.15 22.7-27.6 22.45-28.05 21.72-28.28 21-28.5 19.45-28.65L19.45-28.65 19.1-29 19.6-32.45 22-32.35Q24.7-32.2 26.3-32.2L26.3-32.2Q28.45-32.2 30.8-32.35L30.8-32.35 32.6-32.4Q34.15-26.45 36.25-19.3L36.25-19.3 37.85-13.55 38.35-13.55Q39-15.75 39.15-16.1L39.15-16.1Q39.7-17.95 41.25-22.98 42.8-28 44.05-32.25L44.05-32.25Q45.6-32.25 46.45-32.2L46.45-32.2 49.3-32.15Q50.7-32.15 51.35-32.2L51.35-32.2Q52.55-32.25 56.25-32.5L56.25-32.5 56.55-32.3 56.2-28.75Q54.1-28.6 53.37-28.05 52.65-27.5 52.65-26.1L52.65-26.1Q52.65-24.25 53.02-18.28 53.4-12.3 53.8-8.2L53.8-8.2Q54.05-5.55 54.55-4.63 55.05-3.7 56.2-3.7L56.2-3.7Q57.15-3.7 57.65-3.8L57.65-3.8 57.9-3.45 57.45 0.15Q54.6 0 52.2 0L52.2 0Q50.75 0 47.95 0.15 45.15 0.3 44.05 0.4L44.05 0.4 44.55-3.4Q45.95-3.55 46.57-4.13 47.2-4.7 47.2-5.85L47.2-5.85 47-10.55Q46.65-15.85 46.5-20.75L46.5-20.75 46-20.75Q42.5-10.9 39.15 0.25L39.15 0.25 34.6 0.7ZM60.15 0.5L60.55-3.4Q62.45-3.7 63.15-4.63 63.85-5.55 63.85-7.75L63.85-7.75 63.85-25.9Q63.85-27.45 63.5-27.98 63.15-28.5 62.05-28.5L62.05-28.5Q61.6-28.5 61.2-28.45 60.8-28.4 60.65-28.4L60.65-28.4 60.3-28.95 60.7-32.25 68-32.2Q69.45-32.2 72.62-32.33 75.8-32.45 76.85-32.5L76.85-32.5 76.4-28.4Q74.65-28.2 73.82-27.9 73-27.6 72.7-27 72.4-26.4 72.3-25.2L72.3-25.2Q71.8-18 71.8-7.35L71.8-7.35Q71.8-5.75 72.3-5.23 72.8-4.7 74.35-4.7L74.35-4.7Q76.55-4.7 77.65-5.3 78.75-5.9 79.27-7.53 79.8-9.15 80.1-12.5L80.1-12.5 85.25-13.05 85.7-12.45Q85.55-11.45 85.15-7.83 84.75-4.2 84.45-0.25L84.45-0.25 83.85 0.4Q82.5 0.35 78.02 0.18 73.55 0 69.5 0L69.5 0Q66.55 0 63.75 0.2 60.95 0.4 60.15 0.5L60.15 0.5Z" opacity="1" transform="matrix(1,0,0,1,0,0)" fill="#ba3b0a" class="wordmark-text-0" data-fill-palette-color="primary" id="text-0"></path></svg></g></svg></g></svg></g></svg></g></svg></g></svg></g></svg></g></svg></g><defs></defs></svg><rect width="320" height="360" fill="none" stroke="none" visibility="hidden"></rect></g></svg></g></svg>